PathFileType	4	(X/Y/Z)	/Users/niels/Desktop/University/Third Semester/Perception and Action/Exam/Gymnastics Motion Tracking/Code for Gym Tracking/Analyzed Data/Backflip/id3_1_baseline_Sports2D/id3_1_baseline_Sports2D_px_person00.trc
DataRate	CameraRate	NumFrames	NumMarkers	Units	OrigDataRate	OrigDataStartFrame	OrigNumFrames
59.97270866499886	59.97270866499886	9	22	m	59.97270866499886	2308	2638
Frame#	Time	Hip			RHip			RKnee			RAnkle			RBigToe			RSmallToe			RHeel			LHip			LKnee			LAnkle			LBigToe			LSmallToe			LHeel			Neck			Head			Nose			RShoulder			RElbow			RWrist			LShoulder			LElbow			LWrist		
		X1	Y1	Z1	X2	Y2	Z2	X3	Y3	Z3	X4	Y4	Z4	X5	Y5	Z5	X6	Y6	Z6	X7	Y7	Z7	X8	Y8	Z8	X9	Y9	Z9	X10	Y10	Z10	X11	Y11	Z11	X12	Y12	Z12	X13	Y13	Z13	X14	Y14	Z14	X15	Y15	Z15	X16	Y16	Z16	X17	Y17	Z17	X18	Y18	Z18	X19	Y19	Z19	X20	Y20	Z20	X21	Y21	Z21	X22	Y22	Z22
2308	38.48417140690179	1.1126102795746688	-0.5216582706502597	0.0	1.1150958206362014	-0.5198987201597228	0.0	1.1179252801565442	-0.6334910040225675	0.0	1.0981590058634623	-0.7462201183451356	0.0	1.1364742642381573	-0.7549838267250959	0.0	1.1265018913307292	-0.7575079968148104	0.0	1.0917039257485885	-0.7571710748223295	0.0	1.1088423710825646	-0.5183618260950201	0.0	1.1198688256756213	-0.631288842426398	0.0	1.099181233431446	-0.7416319084711797	0.0	1.13813470882878	-0.7502354506187411	0.0	1.126114644530563	-0.7472309684364786	0.0	1.0896217595898214	-0.7524865708077197	0.0	1.150020427654916	-0.37922491873042696	0.0	1.187596779834762	-0.3215171786304105	0.0	1.1908861864626241	-0.36084896855022275	0.0	1.1477234824331894	-0.3974987241264693	0.0	1.1486034379904222	-0.47288638920241577	0.0	1.1740994980077328	-0.5448920665463121	0.0	1.1328514238683578	-0.3952080537719472	0.0	1.1171769565619374	-0.4699816342084351	0.0	1.1325053278870119	-0.5362467374437871	0.0
2309	38.50084565794464	1.1124685726953711	-0.5195838659203936	0.0	1.1150942800918564	-0.517822929149203	0.0	1.117806952391704	-0.631479605051732	0.0	1.0982606412166134	-0.7441689788198146	0.0	1.1360908058246206	-0.7534333108146763	0.0	1.125976459403691	-0.7557519481654414	0.0	1.0918221990809718	-0.7553668088836124	0.0	1.108599303215072	-0.5162804586247395	0.0	1.1195270762833966	-0.6292068613701992	0.0	1.0992695610499248	-0.7393890446109682	0.0	1.137900665035374	-0.747981404569528	0.0	1.1253390807281558	-0.7449160931239966	0.0	1.0897895042314543	-0.7503736000753173	0.0	1.1499563600405873	-0.37724465687160685	0.0	1.187436807562482	-0.3193899153264064	0.0	1.1909730019497637	-0.35878639119855943	0.0	1.1477758176550186	-0.39532664580215937	0.0	1.1485355769977224	-0.4705789685022073	0.0	1.1740865239866551	-0.5424482630782091	0.0	1.1329156578693782	-0.39297061320496923	0.0	1.1175170841521385	-0.4677927327409137	0.0	1.1334148664917032	-0.5340876933549596	0.0
2310	38.51751990898749	1.1123583681848523	-0.517668428908272	0.0	1.115130084510767	-0.5159390428608265	0.0	1.1177164307329719	-0.6296394626009321	0.0	1.0983358073231746	-0.7422802507189287	0.0	1.1356765753426599	-0.7520361976537365	0.0	1.125401669270355	-0.7541636711303576	0.0	1.0919094337089397	-0.7537215582868703	0.0	1.1083568923729603	-0.5143859416764041	0.0	1.1191918932423155	-0.6273050805771646	0.0	1.0993326708243345	-0.7373178207089872	0.0	1.1376530921743868	-0.7459033031437265	0.0	1.1245947814002084	-0.7427961789041241	0.0	1.0899124608716944	-0.7484003975436793	0.0	1.1498605171294842	-0.3754171392900712	0.0	1.1872066854436343	-0.3174142411427412	0.0	1.1910291319088626	-0.35688292875255917	0.0	1.1478123030891625	-0.39333909290176056	0.0	1.1484644991870463	-0.46845216939147855	0.0	1.1741269833885142	-0.5401181745089	0.0	1.1329228953201285	-0.39087825985585595	0.0	1.1178714487800447	-0.4657737592203435	0.0	1.1344213122931819	-0.5321014872943837	0.0
2311	38.53419416003034	1.1122814805205679	-0.5159347618509288	0.0	1.1151904262486871	-0.5142575641704779	0.0	1.117650321668883	-0.6279920192682612	0.0	1.09838346963904	-0.7405838091424287	0.0	1.1352441782889797	-0.7508138186416098	0.0	1.1247971791672355	-0.7527642473626849	0.0	1.0919689569683098	-0.7522591469708972	0.0	1.1081194748988794	-0.5126882562531768	0.0	1.1188781612289895	-0.6256031996113296	0.0	1.0993730808280837	-0.7354550311077549	0.0	1.137399658345999	-0.7440378212080438	0.0	1.1239020635673973	-0.7409110818737528	0.0	1.0899957599928205	-0.7465970382613198	0.0	1.1497332652452064	-0.3737677335601266	0.0	1.1869286430395714	-0.31562124769072447	0.0	1.19104396451586	-0.3551672694900433	0.0	1.147827900944859	-0.39155541373440717	0.0	1.1483892112148821	-0.46653089672229114	0.0	1.1742246900392252	-0.5379308487171732	0.0	1.1328739786567152	-0.38896307015542103	0.0	1.1182185848750075	-0.463948849801254	0.0	1.135511966871666	-0.530315189881706	0.0
2312	38.55086841107319	1.1122360575917603	-0.5144060550357564	0.0	1.11525992506182	-0.5127830398855001	0.0	1.1176038037318705	-0.6265579923149486	0.0	1.0984062020810084	-0.739100151501574	0.0	1.1348048784727927	-0.74977736830235	0.0	1.1241821510051224	-0.7515641748968617	0.0	1.0920065970148363	-0.750991157125465	0.0	1.1078878002309753	-0.5111930567193992	0.0	1.1185985146867568	-0.6241164763270489	0.0	1.0993947523654723	-0.7338227037054563	0.0	1.1371486437666194	-0.7424028627736873	0.0	1.123273560771359	-0.7392788491377075	0.0	1.0900487987580496	-0.7449841083120058	0.0	1.1495729985728078	-0.3723228803576922	0.0	1.1866259250230469	-0.31403497895138727	0.0	1.191002776004053	-0.35365838853869874	0.0	1.147818638371199	-0.389991775799739	0.0	1.1483066309786847	-0.4648340935250644	0.0	1.1743823253988546	-0.5359188151025059	0.0	1.1327708978598305	-0.38725690214542646	0.0	1.1185368759834016	-0.4623395312672379	0.0	1.1366735600116524	-0.5287468393358205	0.0
2313	38.56754266211605	1.1122158434267837	-0.5131052901132445	0.0	1.115322255642475	-0.5115190915428873	0.0	1.1175700662214942	-0.6253551653311534	0.0	1.098408406517347	-0.7378449946968997	0.0	1.134372516904905	-0.7489300026887334	0.0	1.123575967877713	-0.7505673574806594	0.0	1.0920258257704758	-0.7499206405219653	0.0	1.1076614830646456	-0.5099067917661702	0.0	1.1183608367576057	-0.6228575023964161	0.0	1.0994005363235901	-0.7324341115248236	0.0	1.1369085230486053	-0.741003121649437	0.0	1.1227166626264489	-0.7379013206697682	0.0	1.090082663150128	-0.7435777821864935	0.0	1.1493777269964183	-0.37110881083498976	0.0	1.1863205478836896	-0.31267240554922143	0.0	1.1908933479640467	-0.35236844495010256	0.0	1.1477834373092883	-0.3886612558538089	0.0	1.1482125924614137	-0.4633745329461296	0.0	1.1746019240967451	-0.5341178240515009	0.0	1.1326185347033986	-0.38578997610858257	0.0	1.118806077711385	-0.46096517723784797	0.0	1.1378896869636923	-0.5274104826114051	0.0
2314	38.5842169131589	1.1122099093924875	-0.512054340164357	0.0	1.115364192992506	-0.5104731731483297	0.0	1.1175402615579484	-0.6243971754325269	0.0	1.0983939312631636	-0.7368344906919665	0.0	1.1339644288056294	-0.7482715246501971	0.0	1.1229996346616475	-0.749776630131719	0.0	1.092027644111028	-0.7490491866769129	0.0	1.1074413082751973	-0.5088407166582705	0.0	1.1181652194916507	-0.6218398724008413	0.0	1.099390716691159	-0.7313029470808571	0.0	1.1366871108101335	-0.7398414098178672	0.0	1.1222359471048013	-0.736777965532996	0.0	1.0901070967716202	-0.7423965756714115	0.0	1.149146453793257	-0.37014892988268905	0.0	1.1860294213893172	-0.31154450578255216	0.0	1.190711253025892	-0.3513063310023042	0.0	1.1477221321401356	-0.387573126016234	0.0	1.1481032881299083	-0.46215869348146793	0.0	1.1748839455888056	-0.5325627258374601	0.0	1.1324239224389387	-0.38458877903310495	0.0	1.1190045601850962	-0.45984275866324625	0.0	1.1391337242104318	-0.5263197482057244	0.0
2315	38.60089116420175	1.1122039154958165	-0.5112752235267931	0.0	1.115378775782849	-0.5096601446718416	0.0	1.1175050097211492	-0.6236952816238738	0.0	1.098364091580475	-0.7360871979296616	0.0	1.1335974458399374	-0.7478027512968765	0.0	1.1224741725516245	-0.7491969979565749	0.0	1.0920136219451813	-0.7483826675383375	0.0	1.1072270961849655	-0.5080119802517313	0.0	1.118003953548362	-0.621080458803209	0.0	1.0993636893898187	-0.7304483033716671	0.0	1.1364910435127662	-0.7389301874637261	0.0	1.1218346841578601	-0.7359189024666143	0.0	1.0901279967664095	-0.7414658406128727	0.0	1.1488793901895376	-0.36946120219064543	0.0	1.185760154713643	-0.3106584077786961	0.0	1.1904600900067515	-0.3504790339074282	0.0	1.1476322679016044	-0.386731849377698	0.0	1.14797711191282	-0.4611877488324942	0.0	1.1752255989715863	-0.5312808545375127	0.0	1.1321920923484512	-0.3836745231177192	0.0	1.1191078500792548	-0.45898598905259835	0.0	1.1403671001769409	-0.5254862346833313	0.0
2316	38.6175654152446	1.1121826978855345	-0.5107910492006521	0.0	1.1153647623841942	-0.5091014104899467	0.0	1.1174563947328506	-0.623260969749	0.0	1.098317399605749	-0.7356226223861685	0.0	1.133283166665008	-0.7475278637439343	0.0	1.122015624492886	-0.7488366592770065	0.0	1.0919880304275897	-0.7479321691652264	0.0	1.1070143234884724	-0.5074411590014667	0.0	1.1178651921506355	-0.6205981184528003	0.0	1.099318338183341	-0.7298925721896459	0.0	1.1363254713699549	-0.7382925874136071	0.0	1.12151427943255	-0.7353446193051646	0.0	1.090146604650594	-0.7408163012942929	0.0	1.1485779654662795	-0.36905610381298287	0.0	1.1855121673872646	-0.3100180048295286	0.0	1.190148046947335	-0.3498921806173343	0.0	1.147509163894348	-0.3861375422821494	0.0	1.1478352051203364	-0.4604604310955281	0.0	1.1756222859030627	-0.5302885675528873	0.0	1.1319245559715256	-0.38306106331430373	0.0	1.1190955331711496	-0.4584044888081962	0.0	1.141552886132642	-0.5249166838255125	0.0
